<svg xmlns="http://www.w3.org/2000/svg" viewBox="0 0 1440 1000" role="img" aria-label="palworld-ondemand AWS architecture with full Discord REST API" font-family="Avenir Next, Helvetica Neue, Hiragino Sans, Hiragino Kaku Gothic ProN, Yu Gothic, sans-serif">
      <rect width="1440" height="1000" fill="#ffffff"></rect><defs>
        <marker id="m-launch" viewBox="0 0 10 10" refX="8.5" refY="5" markerWidth="6.5" markerHeight="6.5" orient="auto-start-reverse">
          <path d="M0 0 L10 5 L0 10 z" style="fill: #dd6b10"></path>
        </marker>
        <marker id="m-cmd" viewBox="0 0 10 10" refX="8.5" refY="5" markerWidth="6.5" markerHeight="6.5" orient="auto-start-reverse">
          <path d="M0 0 L10 5 L0 10 z" style="fill: #6b3fd4"></path>
        </marker>
        <marker id="m-notify" viewBox="0 0 10 10" refX="8.5" refY="5" markerWidth="6.5" markerHeight="6.5" orient="auto-start-reverse">
          <path d="M0 0 L10 5 L0 10 z" style="fill: #d91e74"></path>
        </marker>
        <marker id="m-play" viewBox="0 0 10 10" refX="8.5" refY="5" markerWidth="6.5" markerHeight="6.5" orient="auto-start-reverse">
          <path d="M0 0 L10 5 L0 10 z" style="fill: #0f8a80"></path>
        </marker>
        <marker id="m-util" viewBox="0 0 10 10" refX="8.5" refY="5" markerWidth="6.5" markerHeight="6.5" orient="auto-start-reverse">
          <path d="M0 0 L10 5 L0 10 z" style="fill: #8595a3"></path>
        </marker>
      </defs>

      
      <rect x="330" y="60" width="1080" height="880" rx="14" style="fill:none;stroke:#8595a3;stroke-width:1.4;"></rect>
      <svg x="331" y="61" width="30" height="30" viewBox="0 0 40 40"><title>Icon-Architecture-Group/32/AWS-Cloud_32</title><g fill="none" fill-rule="evenodd"><path fill="#242f3e" d="M0 0h40v40H0z"></path><path fill="#fff" d="m28.993 27.995-17.506-.019c-2.366-.002-4.333-1.847-4.475-4.2A6 6 0 0 1 7 23.396c0-3.098 2.091-4.11 3.337-4.438a.5.5 0 0 0 .37-.54 7 7 0 0 1-.048-.823c0-2.464 1.649-5.114 3.756-6.033.944-.413 1.817-.577 2.608-.577 2.253 0 3.844 1.33 4.538 2.047.768.793 1.366 1.805 1.779 3.01a.498.498 0 0 0 .879.128c.588-.82 1.547-1.189 2.44-.932 1.123.321 1.857 1.488 1.961 3.068a.5.5 0 0 0 .407.57C30.222 19.09 33 19.957 33 23.44c0 4.15-3.886 4.542-4.007 4.555m.601-10.02c-.215-1.908-1.194-3.279-2.66-3.697-1.035-.296-2.123-.033-2.945.672-.436-1.014-1.01-1.89-1.709-2.612-2.257-2.333-5.347-2.966-8.266-1.692-2.483 1.084-4.355 4.072-4.355 6.95q0 .261.017.518C8.319 18.574 6 19.875 6 23.397q0 .229.014.441c.174 2.878 2.579 5.135 5.472 5.138l17.548.017C29.084 28.99 34 28.52 34 23.44c0-3.938-2.997-5.126-4.406-5.466"></path></g></svg>
      <text x="373" y="81" style="font-size:12.5px;font-weight:600;fill:#5b6b7a;letter-spacing:0.06em;">AWS Cloud — single CDK stack</text>

      
      <g data-steps="1">
        <rect x="60" y="80" width="210" height="48" rx="24" style="stroke-width:1.4;fill:#ffffff;stroke:#c8d2da;"></rect>
        <g transform="translate(76,92) scale(0.5)"><path style="fill: #1e2a36" fill-rule="evenodd" d="M28.639 9.286c0-2.915 2.413-5.286 5.38-5.286s5.378 2.371 5.378 5.286-2.412 5.286-5.378 5.286-5.38-2.371-5.38-5.286m11.524 7.048a11.7 11.7 0 0 0-2.035-1.001c1.97-1.31 3.269-3.531 3.269-6.047 0-4.017-3.31-7.286-7.378-7.286-4.069 0-7.38 3.269-7.38 7.286 0 2.51 1.293 4.728 3.256 6.039a11.9 11.9 0 0 0-3.546 2.1l1.303 1.518A9.77 9.77 0 0 1 34 16.572c1.802 0 3.569.505 5.109 1.461 2.74 1.702 4.538 4.692 4.844 7.967H34v2h11a1 1 0 0 0 1-1c0-4.343-2.236-8.43-5.837-10.666M8.639 9.286C8.639 6.371 11.052 4 14.019 4s5.378 2.371 5.378 5.286-2.412 5.286-5.378 5.286-5.38-2.371-5.38-5.286M14 26H4.046C4.53 20.717 8.81 16.572 14 16.572c1.802 0 3.569.505 5.109 1.461.432.269.849.575 1.24.91l1.303-1.517a11.71 11.71 0 0 0-3.524-2.093c1.97-1.31 3.269-3.531 3.269-6.047 0-4.017-3.31-7.286-7.378-7.286-4.069 0-7.38 3.269-7.38 7.286 0 2.515 1.298 4.737 3.268 6.046C5.302 17.071 2 21.638 2 27a1 1 0 0 0 1 1h11zm.046 18c.484-5.283 4.764-9.428 9.954-9.428 1.802 0 3.569.505 5.109 1.461 2.74 1.702 4.538 4.692 4.844 7.967zm4.593-16.714c0-2.915 2.413-5.286 5.38-5.286s5.378 2.371 5.378 5.286-2.412 5.286-5.378 5.286-5.38-2.371-5.38-5.286m11.524 7.048a11.7 11.7 0 0 0-2.035-1.001c1.97-1.31 3.269-3.531 3.269-6.047 0-4.017-3.31-7.286-7.378-7.286-4.069 0-7.38 3.269-7.38 7.286 0 2.515 1.298 4.737 3.268 6.046C15.302 35.071 12 39.638 12 45a1 1 0 0 0 1 1h22a1 1 0 0 0 1-1c0-4.343-2.236-8.43-5.837-10.666"></path></g>
        <text x="170" y="109" text-anchor="middle" style="font-size:15px;font-weight:600;fill:#1e2a36;">Discord admin</text>
      </g>

      
      <g data-steps="1 2 4 7 10">
        <rect x="60" y="220" width="210" height="200" rx="12" style="stroke-width:1.4;fill:#f0f1fe;stroke:#8a96e7;"></rect>
        <path d="M60 232 a12 12 0 0 1 12 -12 h186 a12 12 0 0 1 12 12 v18 h-210 z" style="fill:#5865f2;"></path>
        <text x="165" y="241" text-anchor="middle" style="font-size:14px;font-weight:700;fill:#fff;">Discord</text>
        <rect x="74" y="262" width="182" height="32" rx="7" style="stroke-width:1.4;fill:#ffffff;stroke:#c8d2da;"></rect>
        <text x="165" y="283" text-anchor="middle" style="font-family:&#39;SF Mono&#39;, Menlo, Consolas, monospace;font-size:11.5px;fill: #1e2a36">/start</text>
        <rect x="74" y="304" width="182" height="44" rx="7" style="stroke-width:1.4;fill:#ffffff;stroke:#c8d2da;"></rect>
        <text x="165" y="322" text-anchor="middle" style="font-family:&#39;SF Mono&#39;, Menlo, Consolas, monospace;fill: #6b3fd4; font-size: 10.5px">/players /kick /save …</text>
        <text x="165" y="339" text-anchor="middle" style="fill:#5b6b7a;font-size: 10.5px">11 REST commands</text>
        <rect x="74" y="358" width="182" height="46" rx="7" style="stroke-width:1.4;fill:#ffffff;stroke:#c8d2da;"></rect>
        <text x="165" y="378" text-anchor="middle" style="font-size:11.5px;fill:#5b6b7a;">Notification channel</text>
        <text x="165" y="395" text-anchor="middle" style="fill:#5b6b7a;font-size: 10px">(Webhook)</text>
      </g>

      
      <g data-steps="11">
        <rect x="60" y="880" width="210" height="48" rx="24" style="stroke-width:1.4;fill:#ffffff;stroke:#c8d2da;"></rect>
        <g transform="translate(74,892) scale(0.5)"><path style="fill: #1e2a36" fill-rule="evenodd" d="M6.025 44c.499-9.915 8.37-17.822 17.975-17.822 3.248 0 6.43.914 9.205 2.644 5.149 3.211 8.448 8.961 8.769 15.178zm8.167-30.122c0-5.446 4.4-9.878 9.809-9.878 5.407 0 9.806 4.432 9.806 9.878 0 5.447-4.399 9.879-9.806 9.879-5.409 0-9.809-4.432-9.809-9.879m20.071 13.247a19.4 19.4 0 0 0-5.565-2.354 11.89 11.89 0 0 0 7.109-10.893C35.807 7.329 30.51 2 24.001 2c-6.512 0-11.809 5.329-11.809 11.878 0 4.877 2.938 9.072 7.125 10.9C10.545 26.981 4 35.2 4 45a1 1 0 0 0 1 1h38a1 1 0 0 0 1-1c0-7.281-3.731-14.13-9.737-17.875"></path></g>
        <text x="172" y="909" text-anchor="middle" style="font-size:15px;font-weight:600;fill:#1e2a36;">Palworld client</text>
      </g>

      
      <g data-steps="2 3 4 5 7">
        <rect x="390" y="200" width="240" height="96" rx="12" style="stroke-width:1.4;fill:#fbefe5;stroke:#d59461;"></rect>
        <svg x="404" y="228" width="40" height="40" viewBox="0 0 64 64"><title>Icon-Architecture/48/Arch_AWS-Lambda_48</title><g fill="none" fill-rule="evenodd"><path fill="#ed7100" d="M0 0h64v64H0z"></path><path fill="#fff" d="M22.68 52h-9.106l10.264-21.59 4.562 9.451zm2.047-24.333a.99.99 0 0 0-.896-.564h-.003a.99.99 0 0 0-.896.569L11.097 52.569c-.147.31-.126.674.057.965.181.29.5.466.842.466H23.31a1 1 0 0 0 .9-.572l6.194-13.144a1 1 0 0 0-.005-.864zM51.008 52h-9.022L26.955 19.578a1 1 0 0 0-.903-.578h-5.924l.007-7h11.68l14.96 32.42c.163.354.516.58.904.58h3.33zm.996-9h-3.69l-14.96-32.42a1 1 0 0 0-.903-.58H19.14a1 1 0 0 0-.996.999l-.008 9A.993.993 0 0 0 19.131 21h6.286l15.03 32.422a1 1 0 0 0 .903.578h10.654c.55 0 .996-.448.996-1v-9c0-.552-.445-1-.996-1"></path></g></svg>
        <text x="538" y="242" text-anchor="middle" style="font-weight:600;fill:#1e2a36;font-size: 14px">Interactions Lambda</text>
        <text x="538" y="263" text-anchor="middle" style="fill:#5b6b7a;font-size: 11px">Function URL · 12 commands</text>
      </g>

      
      <g data-steps="5 6">
        <rect x="370" y="428" width="290" height="160" rx="12" style="fill:rgba(107,63,212,0.05);stroke:#6b3fd4;stroke-width:1.3;stroke-dasharray:5 4;"></rect>
        <text x="384" y="448" style="font-size: 10.5px; fill: #6b3fd4; font-weight: 600">VPC isolated subnet</text>
        <rect x="390" y="458" width="240" height="100" rx="10" style="stroke-width:1.4;fill:#efeafa;stroke:#907ad6;"></rect>
        <rect x="576" y="466" width="44" height="16" rx="4" style="fill:#6b3fd4;"></rect>
        <text x="598" y="478" text-anchor="middle" style="font-size:9.5px;font-weight:700;fill:#fff;letter-spacing:0.08em;">NEW</text>
        <svg x="404" y="488" width="40" height="40" viewBox="0 0 64 64"><title>Icon-Architecture/48/Arch_AWS-Lambda_48</title><g fill="none" fill-rule="evenodd"><path fill="#ed7100" d="M0 0h64v64H0z"></path><path fill="#fff" d="M22.68 52h-9.106l10.264-21.59 4.562 9.451zm2.047-24.333a.99.99 0 0 0-.896-.564h-.003a.99.99 0 0 0-.896.569L11.097 52.569c-.147.31-.126.674.057.965.181.29.5.466.842.466H23.31a1 1 0 0 0 .9-.572l6.194-13.144a1 1 0 0 0-.005-.864zM51.008 52h-9.022L26.955 19.578a1 1 0 0 0-.903-.578h-5.924l.007-7h11.68l14.96 32.42c.163.354.516.58.904.58h3.33zm.996-9h-3.69l-14.96-32.42a1 1 0 0 0-.903-.58H19.14a1 1 0 0 0-.996.999l-.008 9A.993.993 0 0 0 19.131 21h6.286l15.03 32.422a1 1 0 0 0 .903.578h10.654c.55 0 .996-.448.996-1v-9c0-.552-.445-1-.996-1"></path></g></svg>
        <text x="540" y="504" text-anchor="middle" style="font-weight:600;fill:#1e2a36;font-size: 13.5px">REST API proxy</text>
        <text x="540" y="525" text-anchor="middle" style="fill:#5b6b7a;font-size: 11px">Lambda · no internet access</text>
      </g>

      
      <g data-steps="3">
        <rect x="720" y="110" width="640" height="290" rx="14" style="fill:rgba(221,107,16,0.04);stroke:#dd6b10;stroke-width:1.4;"></rect>
        <svg x="740" y="124" width="30" height="30" viewBox="0 0 64 64"><title>Icon-Architecture/48/Arch_Amazon-Elastic-Container-Service_48</title><g fill="none" fill-rule="evenodd"><path fill="#ed7100" d="M0 0h64v64H0z"></path><path fill="#fff" d="m50 36.382-6-3V25a1 1 0 0 0-.515-.874L35 19.412V12.75l15 8.822zm1.507-16.244-17-10a1.001 1.001 0 0 0-1.507.863v9c0 .362.197.697.515.873L42 25.588V34c0 .38.214.725.553.895l8 4a1 1 0 0 0 .972-.044c.295-.183.475-.504.475-.85V21c0-.355-.188-.683-.493-.863M32 51.828 15 41.439V21.554l14-8.75v6.642l-7.53 4.706A1 1 0 0 0 21 25v13a1 1 0 0 0 .485.857l10 6a1 1 0 0 0 .994.021l10.509-5.732 5.047 2.883zm18.496-10.696-7-4a1 1 0 0 0-.975-.01l-10.498 5.726L23 37.434v-11.88l7.53-4.706A1 1 0 0 0 31 20v-9a1 1 0 0 0-1.53-.847l-16 10A1 1 0 0 0 13 21v21c0 .348.182.671.479.854l18 11a1 1 0 0 0 1.042 0l18-11a1 1 0 0 0-.025-1.722"></path></g></svg>
        <text x="780" y="138" style="font-weight:600;fill: #dd6b10; font-size: 14px">Amazon ECS cluster</text>
        <text x="780" y="156" style="font-size:11.5px;fill:#5b6b7a;">Fargate Spot</text>
        <rect x="740" y="170" width="600" height="210" rx="10" style="fill:none;stroke:#5b6b7a;stroke-width:1.2;stroke-dasharray:5 4;"></rect>
        <svg x="758" y="178" width="20" height="20" viewBox="0 0 64 64"><title>Icon-Architecture/48/Arch_AWS-Fargate_48</title><g fill="none" fill-rule="evenodd"><path fill="#ed7100" d="M0 0h64v64H0z"></path><path fill="#fff" d="M42.467 46.382v-3.764l1.994-1v3.764zm-3.987-4.764 1.994 1v3.764l-1.994-1zm-4.983 9.764v-3.764l1.993-1v3.764zm-3.987-4.764 1.993 1v3.764l-1.993-1zm-4.984-.236v-3.764l1.994-1v3.764zm-3.987-4.764 1.994 1v3.764l-1.994-1zm2.99-2.5 1.759.882-1.758.882L21.77 40zm8.971 5 1.758.882-1.758.882L30.742 45zm8.97-5L43.23 40l-1.759.882L39.712 40zm4.433-.012-3.987-2a.99.99 0 0 0-.891 0l-3.987 2a1 1 0 0 0-.551.894v3.882l-3.541-1.776a.99.99 0 0 0-.892 0l-3.54 1.776V40a1 1 0 0 0-.552-.894l-3.987-2a.99.99 0 0 0-.89 0l-3.988 2a1 1 0 0 0-.55.894v6c0 .379.212.725.55.895l3.987 2a1 1 0 0 0 .891 0l3.541-1.777V51c0 .379.214.725.552.895l3.986 2a1 1 0 0 0 .892 0l3.986-2c.338-.17.552-.516.552-.895v-3.882l3.54 1.777a1 1 0 0 0 .892 0l3.987-2c.338-.17.55-.516.55-.895v-6a1 1 0 0 0-.55-.894M54 28.09c0 5.103-11.077 7.856-21.5 7.856S11 33.193 11 28.09c0-2.461 2.68-4.616 7.547-6.067l.568 1.917c-3.776 1.126-6.122 2.716-6.122 4.15 0 2.764 8.343 5.856 19.507 5.856s19.507-3.092 19.507-5.856c0-1.434-2.346-3.024-6.122-4.15l.568-1.917C51.32 23.474 54 25.629 54 28.09M32.5 12.064 40.547 15 32.5 17.936 24.453 15zm8.868 16.584c-1.556.7-4.155 1.516-7.871 1.645V19.701l8.97-3.273v10.485c0 .754-.431 1.435-1.1 1.735m-18.835-1.735V16.428l8.97 3.273v10.592c-3.716-.129-6.315-.945-7.87-1.645-.669-.3-1.1-.981-1.1-1.735m.283 3.56c1.87.842 5.07 1.846 9.684 1.846 4.615 0 7.813-1.004 9.684-1.846 1.383-.622 2.277-2.019 2.277-3.56V15a1 1 0 0 0-.656-.94l-10.964-4a1 1 0 0 0-.682 0l-10.964 4a1 1 0 0 0-.656.94v11.913c0 1.541.894 2.938 2.277 3.56"></path></g></svg>
        <text x="786" y="193" style="font-size:11.5px;fill:#5b6b7a;">Fargate task (public IP)</text>
      </g>

      <g data-steps="6 11 12">
        <rect x="770" y="210" width="250" height="140" rx="10" style="stroke-width:1.4;fill:#fbefe5;stroke:#d59461;"></rect>
        <svg x="876" y="222" width="38" height="38" viewBox="0 0 48 48"><title>Icon-Resource/Containers/Res_Amazon-Elastic-Container-Service_Container-1_48</title><path fill="#ed7100" fill-rule="evenodd" d="M38.725 33.735h2V14.497h-2zm-5.246 0h2V14.497h-2zm-5.247 0h2V14.497h-2zm-5.246 0h2V14.497h-2zm-5.247 0h2V14.497h-2zm-5.246 0h2V14.497h-2zm-5.247 0h2V14.497h-2zm-3.247 2.497h39.973V12H3.999zM44.972 10H3a1 1 0 0 0-1 1v26.233a1 1 0 0 0 1 1h41.972a1 1 0 0 0 1-1V11a1 1 0 0 0-1-1"></path></svg>
        <text x="895" y="288" text-anchor="middle" style="font-size:15px;font-weight:600;fill:#1e2a36;">palworld-server</text>
        <text x="895" y="312" text-anchor="middle" style="font-family:&#39;SF Mono&#39;, Menlo, Consolas, monospace;fill:#5b6b7a;font-size: 10.5px">UDP 8211 · REST :8212</text>
      </g>

      <g data-steps="8 12">
        <rect x="1060" y="210" width="250" height="140" rx="10" style="stroke-width:1.4;fill:#fbefe5;stroke:#d59461;"></rect>
        <svg x="1166" y="222" width="38" height="38" viewBox="0 0 48 48"><title>Icon-Resource/Containers/Res_Amazon-Elastic-Container-Service_Container-1_48</title><path fill="#ed7100" fill-rule="evenodd" d="M38.725 33.735h2V14.497h-2zm-5.246 0h2V14.497h-2zm-5.247 0h2V14.497h-2zm-5.246 0h2V14.497h-2zm-5.247 0h2V14.497h-2zm-5.246 0h2V14.497h-2zm-5.247 0h2V14.497h-2zm-3.247 2.497h39.973V12H3.999zM44.972 10H3a1 1 0 0 0-1 1v26.233a1 1 0 0 0 1 1h41.972a1 1 0 0 0 1-1V11a1 1 0 0 0-1-1"></path></svg>
        <text x="1185" y="288" text-anchor="middle" style="font-size:15px;font-weight:600;fill:#1e2a36;">watchdog</text>
        <text x="1185" y="312" text-anchor="middle" style="fill:#5b6b7a;font-size: 10.5px">player count → scale to 0</text>
      </g>

      
      <g data-steps="12">
        <path d="M1056 290 L1024 290" marker-end="url(#m-util)" style="fill:none;stroke-width:1.6;stroke-linejoin:round;stroke:#8595a3;"></path>
      </g>
      <g data-steps="12">
        <circle cx="1040" cy="258" r="11" style="fill:#0f8a80;"></circle>
        <text x="1040" y="262" text-anchor="middle" style="font-weight:700;fill:#fff;font-size: 11px">12</text>
      </g>

      
      <g>
        <rect x="720" y="424" width="200" height="64" rx="12" style="stroke-width:1.4;fill:#eef3e5;stroke:#92b36c;"></rect>
        <svg x="732" y="438" width="36" height="36" viewBox="0 0 64 64"><title>Icon-Architecture/48/Arch_Amazon-EFS_48</title><g fill="none" fill-rule="evenodd"><path fill="#7aa116" d="M0 0h64v64H0z"></path><path fill="#fff" d="M52.856 10h-6.981v2h4.457l-5.28 5.293 1.411 1.414 5.396-5.41V18h1.994v-7c0-.552-.445-1-.997-1m-41.008 3.297 5.396 5.41 1.41-1.414L13.375 12h4.457v-2h-6.981a1 1 0 0 0-.998 1v7h1.995zm40.01 37.406-5.395-5.41-1.41 1.414L50.332 52h-4.457v2h6.981a1 1 0 0 0 .997-1v-7H51.86zM20.843 26.465c0-2.945 2.053-6.115 4.67-7.216 4.548-1.905 7.77.601 8.942 1.768.959.954 1.709 2.176 2.227 3.632a1 1 0 0 0 .79.652c.363.052.725-.094.946-.388.542-.723 1.331-1.137 2.166-1.137 1.256 0 2.78.977 2.943 3.731.026.451.349.827.79.92 3.26.687 4.912 2.49 4.912 5.359 0 .714-.086 1.362-.256 1.926l1.911.576c.226-.751.34-1.593.34-2.502 0-3.611-2.045-6.126-5.782-7.144-.483-3.337-2.789-4.866-4.858-4.866-.938 0-1.836.288-2.604.818a11 11 0 0 0-2.12-2.997c-3.037-3.019-7.192-3.839-11.116-2.193-3.361 1.413-5.895 5.308-5.895 9.061q0 .186.009.381c-3.004 1.064-4.769 3.588-4.769 6.897q.002.255.017.5c.16 2.921 2.104 5.445 4.95 6.431l.651-1.89c-2.076-.72-3.493-2.545-3.61-4.65a7 7 0 0 1-.013-.391c0-3.642 2.552-4.823 4.075-5.202.488-.122.809-.589.75-1.09a8 8 0 0 1-.066-.986M40.83 34.6c0-.312-.069-.488-.129-.543-.05-.048-.178-.071-.338-.059L30.32 34a1 1 0 0 1-.997-1 7 7 0 0 0-.128-1h-2.286c-.095.349-.188.831-.195 1.009-.021.537-.462.991-.998.991h-2.302c-.232-.013-.356.008-.407.057-.06.055-.13.231-.13.543V45H40.83zm1.995 2.4v4.764L45.2 37zm-.105 9.447-.009-.004a.99.99 0 0 1-.884.557H21.88a1 1 0 0 1-.998-1V34.6c0-1.068.415-1.68.763-2.005.327-.305.905-.656 1.838-.593l1.352-.001c.166-.873.562-2.001 1.5-2.001h3.492q.097 0 .19.019c.799.155 1.108 1.164 1.227 1.981h9.049c.87-.066 1.443.289 1.769.595.347.325.762.937.762 2.005v.4h3.99a1 1 0 0 1 .892 1.447zm-24.065.26L13.375 52h4.457v2h-6.981a1 1 0 0 1-.998-1v-7h1.995v4.703l5.396-5.41z"></path></g></svg>
        <text x="838" y="450" text-anchor="middle" style="font-weight:600;fill:#1e2a36;font-size: 13px">Amazon EFS</text>
        <text x="838" y="470" text-anchor="middle" style="fill:#5b6b7a;font-size: 10.5px">Save data</text>
      </g>

      
      <g data-steps="8 9">
        <rect x="720" y="560" width="220" height="80" rx="12" style="stroke-width:1.4;fill:#fbe9f1;stroke:#d16fa2;"></rect>
        <svg x="732" y="580" width="40" height="40" viewBox="0 0 64 64"><title>Icon-Architecture/48/Arch_Amazon-Simple-Notification-Service_48</title><g fill="none" fill-rule="evenodd"><path fill="#e7157b" d="M0 0h64v64H0z"></path><path fill="#fff" d="M14 31a1.001 1.001 0 0 1 0 2 1.001 1.001 0 0 1 0-2m19.396 20c-8.888 0-16.574-6.919-18.244-16.232A3 3 0 0 0 16.815 33H22v-2h-5.185a3 3 0 0 0-1.66-1.768C16.776 20.49 24.451 14 33.396 14c4.191 0 7.192.844 10.033 2.821l1.142-1.642C41.411 12.98 37.965 12 33.396 12c-10.002 0-18.57 7.322-20.255 17.14A2.99 2.99 0 0 0 11 32c0 1.353.906 2.486 2.139 2.859C14.88 45.248 23.456 53 33.396 53c4.232 0 8.333-1.409 12.189-4.189l-1.17-1.622C40.907 49.718 37.199 51 33.396 51m-8.334-21.541c1.395.378 3.029.541 4.372.541 1.282 0 2.826-.145 4.184-.474l-3.513 7.027A1 1 0 0 0 30 37v3.501a26 26 0 0 0-.399.331c-.394.33-1.169.981-1.601 1.142V37q0-.192-.071-.372zM29.434 26c2.599 0 4.581.566 5.335 1-.754.434-2.736 1-5.335 1-2.695 0-4.533-.601-5.216-1 .683-.399 2.521-1 5.216-1M27 44h1q.065 0 .128-.008c.966-.125 1.918-.924 2.758-1.628.259-.217.486-.412.66-.526.283-.185.454-.5.454-.838v-3.764l4.592-9.183c.258-.308.408-.657.408-1.053 0-2.201-4.525-3-7.566-3-2.989 0-7.434.799-7.434 3 0 .317.101.601.268.862L26 37.192V43a1 1 0 0 0 1 1m22-1a1.001 1.001 0 0 1 0 2 1.001 1.001 0 0 1 0-2m0-24a1.001 1.001 0 0 1 0 2 1.001 1.001 0 0 1 0-2m2 12a1.001 1.001 0 0 1 0 2 1.001 1.001 0 0 1 0-2m-7 2h4.185A2.99 2.99 0 0 0 51 35c1.654 0 3-1.346 3-3s-1.346-3-3-3a2.99 2.99 0 0 0-2.815 2H44V21h2.185A2.99 2.99 0 0 0 49 23c1.654 0 3-1.346 3-3s-1.346-3-3-3a2.99 2.99 0 0 0-2.815 2H43a1 1 0 0 0-1 1v11h-5v2h5v11a1 1 0 0 0 1 1h3.185A2.99 2.99 0 0 0 49 47c1.654 0 3-1.346 3-3s-1.346-3-3-3a2.99 2.99 0 0 0-2.815 2H44z"></path></g></svg>
        <text x="852" y="605" text-anchor="middle" style="font-weight:600;fill:#1e2a36;font-size: 13.5px">SNS topic</text>
      </g>

      
      <g data-steps="9 10">
        <rect x="720" y="700" width="220" height="80" rx="12" style="stroke-width:1.4;fill:#fbefe5;stroke:#d59461;"></rect>
        <svg x="732" y="720" width="40" height="40" viewBox="0 0 64 64"><title>Icon-Architecture/48/Arch_AWS-Lambda_48</title><g fill="none" fill-rule="evenodd"><path fill="#ed7100" d="M0 0h64v64H0z"></path><path fill="#fff" d="M22.68 52h-9.106l10.264-21.59 4.562 9.451zm2.047-24.333a.99.99 0 0 0-.896-.564h-.003a.99.99 0 0 0-.896.569L11.097 52.569c-.147.31-.126.674.057.965.181.29.5.466.842.466H23.31a1 1 0 0 0 .9-.572l6.194-13.144a1 1 0 0 0-.005-.864zM51.008 52h-9.022L26.955 19.578a1 1 0 0 0-.903-.578h-5.924l.007-7h11.68l14.96 32.42c.163.354.516.58.904.58h3.33zm.996-9h-3.69l-14.96-32.42a1 1 0 0 0-.903-.58H19.14a1 1 0 0 0-.996.999l-.008 9A.993.993 0 0 0 19.131 21h6.286l15.03 32.422a1 1 0 0 0 .903.578h10.654c.55 0 .996-.448.996-1v-9c0-.552-.445-1-.996-1"></path></g></svg>
        <text x="852" y="734" text-anchor="middle" style="font-weight:600;fill:#1e2a36;font-size: 13px">Notify Lambda</text>
        <text x="852" y="754" text-anchor="middle" style="fill:#5b6b7a;font-size: 10.5px">POST to Webhook</text>
      </g>

      
      <g>
        <rect x="1040" y="540" width="300" height="200" rx="12" style="stroke-width:1.4;fill:#ffffff;stroke:#c8d2da;"></rect>
        <svg x="1054" y="556" width="32" height="32" viewBox="0 0 48 48"><title>Icon-Resource/Management-Governance/Res_AWS-Systems-Manager_Parameter-Store_48</title><path fill="#e7157b" fill-rule="evenodd" d="M35.589 36.759c0 .375.306.682.68.682h.002a.678.678 0 0 0 .68-.682v-.002a.678.678 0 0 0-.68-.68h-.001a.67.67 0 0 0-.481.2.67.67 0 0 0-.2.482m-2-.001c0-.717.28-1.39.786-1.896a2.66 2.66 0 0 1 1.894-.785h.003c.716 0 1.39.28 1.897.787a2.66 2.66 0 0 1 .782 1.897 2.66 2.66 0 0 1-.786 1.895c-.26.26-.564.457-.895.59v2.797h-2v-2.8a2.68 2.68 0 0 1-1.681-2.485m9.527-3.983-13.687-.006-.004 11.069 13.685.007zM32.902 30.77l6.713.002v-2.47c.006-2.021-1.487-3.667-3.328-3.673h-.011c-.882 0-1.715.368-2.348 1.036a3.77 3.77 0 0 0-1.014 2.594zm12.214 1.004-.006 13.07a1 1 0 0 1-1 1l-15.685-.007a1 1 0 0 1-1-1l.004-13.07a.997.997 0 0 1 1-1l2.473.002.012-2.518a5.76 5.76 0 0 1 1.56-3.96c1.015-1.072 2.365-1.662 3.802-1.662h.017c2.944.01 5.332 2.556 5.322 5.676v2.468h2.5c.267 0 .52.106.708.294a1 1 0 0 1 .293.707m-30.64-.75h6.974v-2h-6.974zm0-3.487h6.974v-2h-6.974zm0-3.487h6.974v-2h-6.974zm-1.57 9.333H23.11V19.693H12.906zM25.11 18.693v15.69a1 1 0 0 1-1 1H11.906a1 1 0 0 1-1-1v-15.69a1 1 0 0 1 1-1H24.11a1 1 0 0 1 1 1M5.94 8.975h24.077L26.47 4H9.486zm-2.83 1.458a1 1 0 0 1 .076-1.038l4.97-6.975A1 1 0 0 1 8.97 2h18.015a1 1 0 0 1 .815.42l4.97 6.975a1 1 0 0 1-.814 1.58H4a1 1 0 0 1-.89-.542m1.94 29.054h19.888v2H4.05a1 1 0 0 1-1-1V13.462a1 1 0 0 1 1-1h27.905a1 1 0 0 1 1 1v8.717h-2v-7.717H5.05z"></path></svg>
        <text x="1098" y="578" style="font-weight:600;fill:#1e2a36;font-size: 13.5px">SSM Parameter Store</text>

        <g data-steps="9">
          <rect x="1056" y="604" width="268" height="52" rx="8" style="stroke-width:1.4;fill:#fbe9f1;stroke:#d16fa2;"></rect>
          <text x="1070" y="626" style="font-family:&#39;SF Mono&#39;, Menlo, Consolas, monospace;font-size: 10.5px; fill: #1e2a36">…/discord/webhook-url</text>
          <text x="1070" y="644" style="fill:#5b6b7a;font-size: 10px">SecureString</text>
        </g>

        <g data-steps="5 8">
          <rect x="1056" y="668" width="268" height="52" rx="8" style="stroke-width:1.4;fill:#efeafa;stroke:#907ad6;"></rect>
          <rect x="1272" y="674" width="42" height="15" rx="4" style="fill:#6b3fd4;"></rect>
          <text x="1293" y="685" text-anchor="middle" style="font-size:9.5px;font-weight:700;fill:#fff;letter-spacing:0.08em;">NEW</text>
          <text x="1070" y="690" style="font-family:&#39;SF Mono&#39;, Menlo, Consolas, monospace;font-size: 10.5px; fill: #1e2a36">…/server/private-ip</text>
          <text x="1070" y="708" style="fill:#5b6b7a;font-size: 10px">String</text>
        </g>
      </g>

      
      <g>
        <rect x="390" y="640" width="240" height="100" rx="12" style="stroke-width:1.2;fill:#ffffff;stroke:#8595a3;stroke-dasharray:5 4;"></rect>
        <svg x="404" y="658" width="26" height="26" viewBox="0 0 64 64"><title>Icon-Architecture/48/Arch_Amazon-EventBridge_48</title><g fill="none" fill-rule="evenodd"><path fill="#e7157b" d="M0 0h64v64H0z"></path><path fill="#fff" d="M43.262 52c-1.566 0-2.84-1.264-2.84-2.818s1.274-2.818 2.84-2.818 2.839 1.264 2.839 2.818S44.827 52 43.26 52m-6.718-13H28.4l-4.072-7 4.072-7h8.144l4.072 7zM22.746 17.636c-1.566 0-2.84-1.264-2.84-2.818S21.18 12 22.746 12s2.84 1.264 2.84 2.818-1.275 2.818-2.84 2.818m20.516 26.728c-.542 0-1.055.109-1.543.272l-3.103-5.198 4.036-6.938c.18-.31.18-.69 0-1l-4.654-8c-.18-.31-.512-.5-.873-.5h-8.324l-2.777-4.651c.963-.881 1.576-2.132 1.576-3.531 0-2.656-2.177-4.818-4.854-4.818s-4.855 2.162-4.855 4.818c0 2.657 2.177 4.818 4.855 4.818.542 0 1.055-.109 1.542-.272l2.566 4.295-4.561 7.841c-.18.31-.18.69 0 1l4.653 8c.18.31.512.5.873.5h9.306c.026 0 .05-.008.075-.01l2.783 4.661c-.962.881-1.575 2.132-1.575 3.531 0 2.656 2.177 4.818 4.854 4.818s4.854-2.162 4.854-4.818c0-2.657-2.177-4.818-4.854-4.818m4.672-18.728c-1.566 0-2.84-1.264-2.84-2.818S46.367 20 47.933 20c1.564 0 2.839 1.264 2.839 2.818s-1.275 2.818-2.84 2.818m3.045.903c1.094-.884 1.809-2.214 1.809-3.721 0-2.656-2.177-4.818-4.854-4.818a4.8 4.8 0 0 0-1.8.353l-2.73-3.921c-.189-.27-.499-.432-.83-.432h-9.067v2h8.54l2.41 3.466a4.78 4.78 0 0 0-1.379 3.352c0 2.657 2.178 4.818 4.856 4.818.434 0 .848-.075 1.25-.182L51.83 32l-3.85 6.616 1.746 1 4.139-7.116c.18-.31.18-.69 0-1zM17.71 43.636c-1.566 0-2.84-1.264-2.84-2.818S16.142 38 17.708 38c1.564 0 2.839 1.264 2.839 2.818s-1.275 2.818-2.84 2.818m2.913 1.011c1.17-.88 1.94-2.261 1.94-3.829 0-2.656-2.177-4.818-4.854-4.818-.7 0-1.364.155-1.965.421L13.17 32l4.472-7.689-1.745-1-4.763 8.189c-.18.31-.18.69 0 1l2.974 5.114c-.771.854-1.256 1.969-1.256 3.204 0 2.657 2.178 4.818 4.855 4.818.368 0 .723-.048 1.066-.125l2.821 4.057c.189.27.498.432.83.432h9.067v-2h-8.537z"></path></g></svg>
        <svg x="404" y="694" width="26" height="26" viewBox="0 0 64 64"><title>Icon-Architecture/48/Arch_AWS-Cost-Explorer_48</title><g fill="none" fill-rule="evenodd"><path fill="#7aa116" d="M0 0h64v64H0z"></path><path fill="#fff" d="M40.312 43.929a3.47 3.47 0 0 1-3.464-3.464A3.47 3.47 0 0 1 40.312 37a3.47 3.47 0 0 1 3.465 3.465 3.47 3.47 0 0 1-3.465 3.464m0-8.929a5.47 5.47 0 0 0-5.464 5.465 5.47 5.47 0 0 0 5.464 5.464 5.47 5.47 0 0 0 5.465-5.464A5.47 5.47 0 0 0 40.312 35m11.525 15.788a.644.644 0 0 1-.906.048l-4.384-3.954c.307-.297.588-.619.85-.956l4.392 3.956a.645.645 0 0 1 .048.906M33.355 40.465a6.965 6.965 0 0 1 6.957-6.958 6.965 6.965 0 0 1 6.958 6.958 6.965 6.965 0 0 1-6.958 6.957 6.965 6.965 0 0 1-6.957-6.957m19.772 7.932-4.676-4.213a8.9 8.9 0 0 0 .819-3.719c0-4.939-4.019-8.958-8.958-8.958-4.938 0-8.957 4.019-8.957 8.958s4.019 8.957 8.957 8.957a8.9 8.9 0 0 0 4.623-1.3l4.658 4.201a2.63 2.63 0 0 0 1.765.675c.723 0 1.443-.294 1.966-.872a2.647 2.647 0 0 0-.197-3.729M16 33.845a4.16 4.16 0 0 0 2.191-1.516l4.294 2.862C22.187 35.743 22 36.355 22 37c0 1.786 1.32 3.374 3 3.845V51h-9zM13 30c0-1.047.954-2 2-2s2 .953 2 2-.953 2-2 2c-1.046 0-2-.953-2-2m13 5c1.047 0 2 .953 2 2s-.953 2-2 2c-1.046 0-2-.953-2-2s.954-2 2-2m11-15c1.047 0 2 .953 2 2s-.953 2-2 2c-1.046 0-2-.953-2-2s.954-2 2-2m11-4c1.047 0 2 .953 2 2s-.953 2-2 2c-1.046 0-2-.953-2-2s.954-2 2-2M27 40.845c1.681-.471 3-2.059 3-3.845 0-.779-.253-1.52-.674-2.15l6.373-9.103q.147.054.301.098V29h2v-3.155c1.681-.471 3-2.059 3-3.845 0-.139-.028-.272-.043-.407l3.388-2.034A4.2 4.2 0 0 0 47 21.845V31h2v-9.155c1.681-.471 3-2.059 3-3.845s-1.319-3.374-3-3.845V12h-2v2.155c-1.487.417-2.677 1.707-2.934 3.239l-3.848 2.309A4.16 4.16 0 0 0 38 18.155V12h-2v6.155c-1.68.471-3 2.058-3 3.845 0 .983.411 1.902 1.049 2.616l-6.216 8.881a4 4 0 0 0-.833-.342V12h-2v21.155c-.416.116-.812.29-1.168.53l-4.878-3.252c.017-.144.046-.286.046-.433 0-1.787-1.319-3.374-3-3.845V12h-2v14.155c-1.68.471-3 2.058-3 3.845 0 1.786 1.32 3.374 3 3.845V53h28v-2H27z"></path></g></svg>
        <text x="528" y="672" text-anchor="middle" style="font-weight: 600; fill: #1e2a36; font-size: 11px">Optional: cost report</text>
        <text x="528" y="694" text-anchor="middle" style="fill:#5b6b7a;font-size: 10px">EventBridge (6h) → Lambda</text>
        <text x="528" y="711" text-anchor="middle" style="fill:#5b6b7a;font-size: 10px">Cost Explorer → SNS</text>
      </g>

      

      
      <g data-steps="1">
        <path d="M165 128 L165 220" marker-end="url(#m-launch)" style="fill:none;stroke-width:2;stroke-linejoin:round;stroke:#dd6b10;"></path>
        <circle cx="165" cy="174" r="12" style="fill:#dd6b10;"></circle>
        <text x="165" y="178.5" text-anchor="middle" style="font-size:12px;font-weight:700;fill:#fff;">1</text>
        <text x="185" y="178" style="font-size:12px;font-weight:600;fill:#dd6b10;">slash command</text>
      </g>

      
      <g data-steps="2">
        <path d="M270 278 L346 278 L346 230 L390 230" marker-end="url(#m-launch)" style="fill:none;stroke-width:2;stroke-linejoin:round;stroke:#dd6b10;"></path>
        <circle cx="346" cy="256" r="12" style="fill:#dd6b10;"></circle>
        <text x="346" y="260.5" text-anchor="middle" style="font-size:12px;font-weight:700;fill:#fff;">2</text>
        <text x="366" y="220" text-anchor="middle" style="font-weight:600;fill:#dd6b10;font-size: 11px">POST</text>
      </g>

      
      <g data-steps="3">
        <path d="M630 220 L720 220" marker-end="url(#m-launch)" style="fill:none;stroke-width:2;stroke-linejoin:round;stroke:#dd6b10;"></path>
        <circle cx="675" cy="220" r="12" style="fill:#dd6b10;"></circle>
        <text x="675" y="224.5" text-anchor="middle" style="font-size:12px;font-weight:700;fill:#fff;">3</text>
        <text x="675" y="200" text-anchor="middle" style="font-weight:600;fill:#dd6b10;font-size: 11px">desiredCount 0 → 1</text>
      </g>

      
      <g data-steps="4">
        <path d="M270 326 L364 326 L364 266 L390 266" marker-end="url(#m-cmd)" style="fill:none;stroke-width:2;stroke-linejoin:round;stroke:#6b3fd4;"></path>
        <circle cx="364" cy="298" r="12" style="fill:#6b3fd4;"></circle>
        <text x="364" y="302.5" text-anchor="middle" style="font-size:12px;font-weight:700;fill:#fff;">4</text>
      </g>

      
      <g data-steps="5">
        <path d="M510 296 L510 458" marker-end="url(#m-cmd)" style="fill:none;stroke-width:2;stroke-linejoin:round;stroke:#6b3fd4;"></path>
        <circle cx="510" cy="376" r="12" style="fill:#6b3fd4;"></circle>
        <text x="510" y="380.5" text-anchor="middle" style="font-size:12px;font-weight:700;fill:#fff;">5</text>
        <text x="528" y="380" style="font-weight:600;fill:#6b3fd4;font-size: 11px">invoke</text>
      </g>

      
      <g data-steps="6">
        <path d="M630 508 L690 508 L690 330 L770 330" marker-end="url(#m-cmd)" style="fill:none;stroke-width:2;stroke-linejoin:round;stroke:#6b3fd4;"></path>
        <circle cx="690" cy="470" r="12" style="fill:#6b3fd4;"></circle>
        <text x="690" y="474.5" text-anchor="middle" style="font-size:12px;font-weight:700;fill:#fff;">6</text>
        <text x="700" y="530" style="font-weight:600;fill:#6b3fd4;font-size: 11px">IP:8212 · proxy SG only</text>
      </g>

      
      <g data-steps="7">
        <path d="M396 296 L396 412 L270 412" marker-end="url(#m-cmd)" style="fill:none;stroke-width:2;stroke-linejoin:round;stroke:#6b3fd4;stroke-dasharray:6 4;"></path>
        <circle cx="333" cy="412" r="12" style="fill:#6b3fd4;"></circle>
        <text x="333" y="416.5" text-anchor="middle" style="font-size:12px;font-weight:700;fill:#fff;">7</text>
        <text x="333" y="396" text-anchor="middle" style="font-weight:600;fill:#6b3fd4;font-size: 11px">ephemeral reply</text>
      </g>

      
      <g data-steps="8">
        <path d="M1085 350 L1085 510 L830 510 L830 560" marker-end="url(#m-notify)" style="fill:none;stroke-width:2;stroke-linejoin:round;stroke:#d91e74;"></path>
        <circle cx="960" cy="510" r="12" style="fill:#d91e74;"></circle>
        <text x="960" y="514.5" text-anchor="middle" style="font-size:12px;font-weight:700;fill:#fff;">8</text>
        <text x="960" y="494" text-anchor="middle" style="font-weight:600;fill:#d91e74;font-size: 11px">start / stop</text>
      </g>

      
      <g data-steps="8">
        <path d="M1150 350 L1150 540" marker-end="url(#m-util)" style="fill:none;stroke-width:1.5;stroke-linejoin:round;stroke:#8595a3;stroke-dasharray:4 4;"></path>
        <text x="1160" y="455" style="fill:#5b6b7a;font-size: 10px">put private-ip</text>
      </g>

      
      <g data-steps="9">
        <path d="M830 640 L830 700" marker-end="url(#m-notify)" style="fill:none;stroke-width:2;stroke-linejoin:round;stroke:#d91e74;"></path>
        <circle cx="830" cy="670" r="12" style="fill:#d91e74;"></circle>
        <text x="830" y="674.5" text-anchor="middle" style="font-size:12px;font-weight:700;fill:#fff;">9</text>
      </g>

      
      <g data-steps="9">
        <path d="M940 726 L1006 726 L1006 630 L1040 630" marker-end="url(#m-util)" style="fill:none;stroke-width:1.5;stroke-linejoin:round;stroke:#8595a3;stroke-dasharray:4 4;"></path>
        <text x="948" y="744" style="fill:#5b6b7a;font-size: 10px">fetch URL</text>
      </g>

      
      <g data-steps="10">
        <path d="M720 764 L48 764 L48 381 L60 381" marker-end="url(#m-notify)" style="fill:none;stroke-width:2;stroke-linejoin:round;stroke:#d91e74;"></path>
        <circle cx="400" cy="764" r="12" style="fill:#d91e74;"></circle>
        <text x="400" y="768.5" text-anchor="middle" style="font-size:12px;font-weight:700;fill:#fff;">10</text>
        <text x="400" y="786" text-anchor="middle" style="font-weight:600;fill:#d91e74;font-size: 11px">posts 🟢 online at IP:8211</text>
      </g>

      
      <g data-steps="11">
        <path d="M270 904 L1380 904 L1380 420 L1040 420 L1040 330 L1020 330" marker-end="url(#m-play)" style="fill:none;stroke-width:2;stroke-linejoin:round;stroke:#0f8a80;"></path>
        <circle cx="700" cy="904" r="12" style="fill:#0f8a80;"></circle>
        <text x="700" y="908.5" text-anchor="middle" style="font-size:12px;font-weight:700;fill:#fff;">11</text>
        <text x="700" y="886" text-anchor="middle" style="font-size:12px;font-weight:600;fill:#0f8a80;">UDP 8211 — connect to the announced IP:port</text>
      </g>

      
      <g>
        <path d="M820 400 L820 424" marker-end="url(#m-util)" style="fill:none;stroke-width:1.6;stroke-linejoin:round;stroke:#8595a3;"></path>
        <text x="830" y="416" style="fill:#5b6b7a;font-size: 10px">saves</text>
      </g>
    </svg>